<svg width="161" height="46" viewBox="0 0 161 46" fill="none" xmlns="http://www.w3.org/2000/svg">
<path d="M37.4995 37.7558C36.8811 36.9571 36.0974 36.2613 35.1649 35.7233C34.2347 35.186 33.2413 34.8561 32.2405 34.7201C31.202 34.5789 30.1508 34.645 29.1492 34.9042L28.1198 35.1702L28.4038 36.1936C28.6803 37.1893 29.1484 38.133 29.7909 38.9626C30.4093 39.7606 31.1915 40.4556 32.1225 40.9936V40.9951C33.0512 41.5316 34.0453 41.8615 35.05 41.9982C36.0884 42.1395 37.1396 42.0734 38.1405 41.8142L39.1699 41.5482L38.8859 40.5247C38.6094 39.5291 38.1412 38.5854 37.4988 37.7558H37.4995ZM35.3287 39.9274C34.5908 39.8267 33.8575 39.5832 33.1692 39.1857H33.1647C32.4802 38.7905 31.9023 38.2765 31.444 37.6852C31.2148 37.3891 31.0157 37.0743 30.8481 36.7452C31.217 36.7256 31.5897 36.7407 31.9609 36.791C32.7026 36.8917 33.4374 37.1359 34.1242 37.5326C34.8088 37.9279 35.3866 38.4419 35.8449 39.0332C36.0741 39.3293 36.2732 39.6441 36.4408 39.9732C36.0719 39.9928 35.6992 39.9777 35.328 39.9274H35.3287Z" fill="#81BB39"/>
<path d="M4.1966 28.86C5.55063 30.214 7.11054 31.2412 8.7749 31.9392C10.4971 32.6621 12.3396 33.0318 14.1903 33.0483L15.252 33.0581L15.2422 31.9971C15.2257 30.1471 14.856 28.3047 14.1332 26.5825C13.4351 24.9173 12.4079 23.3582 11.0539 22.0034C9.69989 20.6494 8.13997 19.6222 6.4756 18.9241C4.75339 18.2013 2.91094 17.8316 1.06098 17.8151L0 17.8053L0.00901649 18.8663C0.0255474 20.7162 0.395238 22.5587 1.11734 24.2809C1.81389 25.9415 2.84031 27.4999 4.1966 28.8562V28.86ZM3.0492 23.4709C2.57506 22.3408 2.27751 21.1573 2.15728 19.9633C3.35127 20.0836 4.53473 20.3811 5.66559 20.8553C7.085 21.4504 8.41573 22.3273 9.57289 23.4844C10.7301 24.6416 11.607 25.9723 12.2021 27.3917C12.6762 28.5218 12.9738 29.7053 13.094 30.8993C11.9 30.7791 10.7165 30.4815 9.58567 30.0074C8.16627 29.4123 6.83553 28.5354 5.67837 27.3782L5.67611 27.3804C4.52196 26.2255 3.64582 24.894 3.0492 23.4709Z" fill="#81BB39"/>
<path d="M22.6488 31.7498C24.362 29.839 25.7558 27.6344 26.7447 25.2201C27.8327 22.5654 28.4323 19.6658 28.4323 16.6331C28.4323 13.6004 27.835 10.7165 26.7507 8.06557C25.6258 5.31543 23.9803 2.83805 21.9372 0.758165L21.1925 0L20.4479 0.758165C18.4048 2.83805 16.7593 5.31543 15.6344 8.06557C14.5501 10.7165 13.9528 13.6102 13.9528 16.6331C13.9528 19.656 14.5531 22.5654 15.6404 25.2201C16.63 27.6337 18.0231 29.839 19.7363 31.7498L16.8697 34.6165C15.6802 35.8059 15.0851 37.3726 15.0851 38.9385C15.0851 40.3632 15.578 41.7886 16.5624 42.93V42.954L16.8697 43.2614C18.0592 44.4508 19.6259 45.0459 21.1918 45.0459C22.7577 45.0459 24.3244 44.4508 25.5146 43.2614C26.7041 42.0719 27.2992 40.5045 27.2992 38.9393C27.2992 37.3741 26.7041 35.8067 25.5146 34.6172L22.648 31.7506L22.6488 31.7498ZM21.1903 33.2587L21.1925 33.2564L21.1948 33.2587C21.1948 33.2587 21.1918 33.2587 21.1903 33.2587ZM17.573 24.4267C16.5909 22.0297 16.0492 19.3983 16.0492 16.6338C16.0492 13.8694 16.5887 11.2448 17.567 8.8523C18.4447 6.70629 19.6777 4.73911 21.1933 3.02365C22.7089 4.73911 23.9419 6.70553 24.8196 8.8523C25.7979 11.2448 26.3374 13.8717 26.3374 16.6338C26.3374 19.396 25.7957 22.0297 24.8136 24.4267C23.9352 26.5697 22.7044 28.5323 21.1933 30.2425C19.683 28.5323 18.4522 26.5697 17.5738 24.4267H17.573Z" fill="#81BB39"/>
<path d="M41.325 17.8151C39.475 17.8316 37.6318 18.2013 35.9096 18.9241C34.2452 19.6222 32.6853 20.6494 31.3313 22.0034C29.9772 23.3574 28.9501 24.9173 28.252 26.5817C27.5292 28.3039 27.1595 30.1464 27.1429 31.9971L27.1332 33.0581L28.1949 33.0483C30.0456 33.0318 31.8881 32.6621 33.6103 31.9392C35.2746 31.2412 36.8346 30.214 38.1886 28.86C39.5426 27.5059 40.5698 25.946 41.2679 24.2817C41.9907 22.5594 42.3604 20.717 42.3769 18.8663L42.3859 17.8053L41.325 17.8151ZM39.336 23.4716C38.7409 24.891 37.864 26.2218 36.7068 27.3789C35.5497 28.5361 34.2189 29.413 32.8003 30.0081C31.6702 30.4822 30.4859 30.7798 29.292 30.9C29.4122 29.706 29.7097 28.5226 30.1839 27.3917C30.779 25.9723 31.6559 24.6416 32.813 23.4844C33.9702 22.3273 35.3009 21.4511 36.7203 20.8553C37.8505 20.3811 39.0347 20.0836 40.2287 19.9633C40.1084 21.1573 39.8109 22.3408 39.3367 23.4716H39.336Z" fill="#81BB39"/>
<path d="M10.1447 34.7194C9.14381 34.8562 8.15045 35.186 7.22022 35.7225C6.28772 36.2605 5.50476 36.9564 4.8856 37.7551C4.24315 38.5854 3.77502 39.5284 3.49851 40.524L3.21448 41.5474L4.2439 41.8134C5.24553 42.0719 6.29599 42.1388 7.33443 41.9975C8.33906 41.8608 9.33392 41.5309 10.2634 40.9944V40.9929C11.1936 40.4549 11.9759 39.7598 12.5935 38.9618C13.236 38.1323 13.7041 37.1885 13.9806 36.1929L14.2646 35.1695L13.2352 34.9035C12.2336 34.645 11.1831 34.5782 10.1439 34.7194H10.1447ZM10.9404 37.6845C10.4821 38.2758 9.90498 38.7898 9.2197 39.185H9.2152C8.52691 39.5825 7.79429 39.826 7.05566 39.9266C6.68446 39.977 6.31177 39.992 5.94283 39.9725C6.11039 39.6426 6.30951 39.3278 6.53869 39.0325C6.99705 38.4411 7.57412 37.9264 8.2594 37.5319C8.94619 37.1352 9.68107 36.8917 10.4227 36.7903C10.7939 36.7399 11.1666 36.7249 11.5355 36.7445C11.368 37.0743 11.1688 37.3892 10.9397 37.6845H10.9404Z" fill="#81BB39"/>
<path d="M21.8072 36.522V38.5057H23.706V39.5209H21.8072V41.5234H20.7545V39.5209H18.8557V38.5057H20.7545V36.522H21.8072Z" fill="white"/>
<path d="M53.9249 13.9023C53.9384 11.2071 55.9831 9.29706 58.5302 9.29706C60.1829 9.29706 61.5919 10.0689 62.3906 11.4509L61.3077 11.9923C60.7123 11.0037 59.6953 10.407 58.545 10.407C56.7711 10.407 55.1992 11.8159 55.1992 13.901C55.2126 15.9322 56.7293 17.3816 58.5181 17.3816C59.6967 17.3816 60.7392 16.9209 61.3225 15.8918V14.3886H58.5598V13.5212H62.4607V16.203C61.7023 17.6523 60.2395 18.5049 58.5194 18.5049C55.9871 18.5049 53.9142 16.6084 53.9276 13.8997L53.9249 13.9023Z" fill="#153158"/>
<path d="M63.4603 9.43311H66.8331C69.4207 9.43311 70.016 10.9363 70.016 12.1688C70.016 13.4013 69.4611 14.5799 67.7275 14.7429L67.1322 14.7563L69.4476 18.3729H68.0117L65.7367 14.7563H64.7346V18.3729H63.4617V9.43311H63.4603ZM66.8331 13.672C68.0791 13.672 68.7431 13.2114 68.7431 12.1688C68.7431 11.3162 68.269 10.543 66.8197 10.543H64.7332V13.672H66.8331Z" fill="#153158"/>
<path d="M71.0181 9.43311H77.0592V10.706H72.291V13.3205H76.5716V14.4452H72.291V17.0731H77.0444V18.3325H71.0167V9.43311H71.0181Z" fill="#153158"/>
<path d="M78.0613 9.43311H84.1024V10.706H79.3342V13.3205H83.6148V14.4452H79.3342V17.0731H84.0876V18.3325H78.0599V9.43311H78.0613Z" fill="#153158"/>
<path d="M85.1047 9.43311H86.2833L90.9156 16.2595V9.43311H92.2019V18.3729H91.0503L86.3776 11.5869V18.3729H85.1047V9.43311Z" fill="#153158"/>
<path d="M96.5903 9.43311H97.8632V13.3609H101.9V9.43311H103.173V18.3729H101.9V14.4856H97.8632V18.3729H96.5903V9.43311Z" fill="#153158"/>
<path d="M104.175 9.43311H110.216V10.706H105.448V13.3205H109.728V14.4452H105.448V17.0731H110.201V18.3325H104.174V9.43311H104.175Z" fill="#153158"/>
<path d="M111.218 9.43311H114.591C117.179 9.43311 117.774 10.9363 117.774 12.1688C117.774 13.4013 117.219 14.5799 115.485 14.7429L114.89 14.7563L117.206 18.3729H115.77L113.495 14.7563H112.492V18.3729H111.22V9.43311H111.218ZM114.591 13.672C115.837 13.672 116.501 13.2114 116.501 12.1688C116.501 11.3162 116.027 10.543 114.578 10.543H112.491V13.672H114.591Z" fill="#153158"/>
<path d="M118.776 9.43311H122.109C124.235 9.43311 125.088 10.3814 125.088 11.6947C125.088 12.5069 124.56 13.2248 123.503 13.5239C124.532 13.8081 125.33 14.5664 125.33 15.7315C125.33 16.8967 124.666 18.3729 122.121 18.3729H118.775V9.43311H118.776ZM121.878 13.0753C123.138 13.0753 123.815 12.6955 123.815 11.8428C123.815 10.9215 123.206 10.543 121.959 10.543H120.062V13.0753H121.877H121.878ZM122.001 17.2482C123.586 17.2482 124.059 16.4899 124.059 15.6494C124.059 14.8089 123.491 14.0653 121.919 14.0653H120.062V17.2482H121.999H122.001Z" fill="#153158"/>
<path d="M129.476 9.43311H130.709L134.704 18.3729H133.364L132.064 15.4743L128.15 15.4608L126.863 18.3729H125.522L129.476 9.43311ZM131.617 14.4573L130.1 11.0576L128.597 14.4573H131.617Z" fill="#153158"/>
<path d="M53.925 22.7684H58.9991C62.8932 22.7684 63.8374 25.0892 63.8374 26.8201C63.8374 28.8648 62.5201 30.7141 58.9991 30.7141H56.2257V35.7491H53.925V22.7697V22.7684ZM58.9991 28.7072C60.6316 28.7072 61.5166 28.1765 61.5166 26.8187C61.5166 25.659 60.8485 24.774 58.9802 24.774H56.227V28.7072H59.0004H58.9991Z" fill="#153158"/>
<path d="M71.0142 22.7681H73.3148V28.2745H78.5262V22.7681H80.8268V35.7475H78.5262V30.2801H73.3148V35.7475H71.0142V22.7681Z" fill="#153158"/>
<path d="M93.7672 22.7681H95.9897L101.791 35.7475H99.3719L97.5818 31.7551L92.2128 31.7348L90.4428 35.7461H88.0237L93.7658 22.7667L93.7672 22.7681ZM96.7763 29.9272L94.8878 25.7193L93.0196 29.9272H96.7763Z" fill="#153158"/>
<path d="M108.969 22.7681H114.043C117.937 22.7681 118.881 24.9704 118.881 26.8386C118.881 28.7069 118.095 30.3973 115.696 30.6936L114.987 30.7138L118.114 35.7488H115.537L112.468 30.7138H111.268V35.7488H108.968V22.7694L108.969 22.7681ZM114.042 28.8052C115.674 28.8052 116.559 28.2152 116.559 26.8386C116.559 25.6789 115.891 24.7737 114.023 24.7737H111.27V28.8052H114.043H114.042Z" fill="#153158"/>
<path d="M126.058 22.7681H128.536L132.666 31.716L136.874 22.7681H139.353V35.7475H137.032V27.0945L133.394 35.7475H131.898L128.359 27.1336V35.7475H126.058V22.7681Z" fill="#153158"/>
<path d="M152.272 22.7681H154.494L160.295 35.7475H157.876L156.086 31.7551L150.717 31.7348L148.947 35.7461H146.528L152.27 22.7667L152.272 22.7681ZM155.281 29.9272L153.392 25.7193L151.524 29.9272H155.281Z" fill="#153158"/>
</svg>
